# xmcd
#
# Track frame offsets: 
#        150
#        21027
#        37954
#        58931
#        76533
#        94810
#        113335
#        135537
#        156264
#
# Disc length: 2348 seconds
#
# Revision: 0
# Processed by: cddbd v1.5.2PL0 Copyright (c) Steve Scherf et al.
# Submitted via: ExactAudioCopy v0.99pb5
#
DISCID=60092a09
DTITLE=Ms. Brown Sugar and Infinity - No Mo' Shuckin' N' Jivin'
DYEAR=1994
DGENRE=Blues
TTITLE0=No Mo' Shuckin' n' Jivin'
TTITLE1=Welfare Woman
TTITLE2=Precious Angel
TTITLE3=Talkin' That Yang-Yang
TTITLE4=Fantasy to Reality
TTITLE5=Missing You'
TTITLE6=2 Keys
TTITLE7=Night Don't Have Eyes
TTITLE8=My Time is Money
EXTD=
EXTT0=
EXTT1=
EXTT2=
EXTT3=
EXTT4=
EXTT5=
EXTT6=
EXTT7=
EXTT8=
PLAYORDER=
